Coordinates
version=1
nRows=22
nColumns=18
inDegrees=yes

Units are S.I. units (second, meters, Newtons, ...)
If the header above contains a line with 'inDegrees', this indicates whether rotational values are in degrees (yes) or radians (no).

endheader
time	ground_thorax_rot_x	ground_thorax_rot_y	ground_thorax_rot_z	ground_thorax_tx	ground_thorax_ty	ground_thorax_tz	clav_prot	clav_elev	scapula_abduction	scapula_elevation	scapula_upward_rot	scapula_winging	plane_elv	shoulder_elv	axial_rot	elbow_flexion	pro_sup
      1.00000000	      1.01628479	    -13.89622288	    -12.86503440	     -0.02671430	      0.01484558	      0.02682753	    -22.46543577	    -16.40904933	    -11.57014270	    -14.12304622	     16.31096845	     24.69729068	    -17.00000000	     29.34889958	     38.17212259	      0.00120871	     -0.00000000
      1.02000000	      0.73502918	    -14.03774458	    -12.79741140	     -0.02777391	      0.01561282	      0.02633493	    -22.62884495	    -16.48280993	    -11.47551015	    -14.30445263	     16.82276963	     24.70429900	    -17.00000000	     30.35667570	     37.81205000	      0.00120871	     -0.00000000
      1.04000000	      0.44851986	    -14.19998469	    -12.68307494	     -0.02887118	      0.01646776	      0.02591768	    -22.79426529	    -16.54887601	    -11.36855473	    -14.48452846	     17.35999459	     24.70405234	    -17.00000000	     31.39107113	     37.41821437	      0.00120871	     -0.00000000
      1.06000000	      0.16185041	    -14.37030570	    -12.53486159	     -0.03000790	      0.01738905	      0.02553585	    -22.95710715	    -16.60459329	    -11.23918868	    -14.66234335	     17.92920310	     24.69289147	    -17.00000000	     32.45478349	     36.97224012	      0.00120871	     -0.00000000
      1.08000000	     -0.12299768	    -14.55332862	    -12.34659751	     -0.03117886	      0.01838040	      0.02520991	    -23.11768190	    -16.64514624	    -11.08404543	    -14.83591288	     18.53851701	     24.66681204	    -17.00000000	     33.53199287	     36.45079178	      0.00120871	     -0.00000000
      1.10000000	     -0.40453891	    -14.74860634	    -12.11727441	     -0.03238361	      0.01944374	      0.02495068	    -23.27766847	    -16.66918542	    -10.90121069	    -15.00553424	     19.19484067	     24.62437894	    -17.00000000	     34.60962355	     35.84576064	      0.00120871	     -0.00000000
      1.12000000	     -0.67016489	    -14.94192080	    -11.86409979	     -0.03363049	      0.02056050	      0.02469598	    -23.42556484	    -16.66589489	    -10.67074492	    -15.16437704	     19.90795100	     24.55497373	    -17.00000000	     35.70210456	     35.12927901	      0.00120871	     -0.00000000
      1.14000000	     -0.90664254	    -15.13781971	    -11.58031170	     -0.03492925	      0.02173745	      0.02447485	    -23.56159383	    -16.61927703	    -10.38309204	    -15.30506994	     20.70040174	     24.44571512	    -17.00000000	     36.78522598	     34.30628702	      0.00120871	     -0.00000000
      1.16000000	     -0.90592196	    -15.40089464	    -11.39025108	     -0.03641605	      0.02230573	      0.02409852	    -23.46340282	    -16.02842155	     -9.48266860	    -15.17717068	     22.18530554	     23.85617553	    -17.00000000	     37.63261960	     31.91104229	      0.00120871	     -0.00000000
      1.18000000	     -1.24377790	    -15.64107092	    -10.95900129	     -0.03761790	      0.02377734	      0.02418104	    -23.70006373	    -16.05811981	     -9.31519285	    -15.36758805	     22.95984459	     23.81947599	    -17.00000000	     38.55788406	     31.37179405	      0.00120871	     -0.00000000
      1.20000000	     -0.96132276	    -15.70201099	    -10.75602065	     -0.03909391	      0.02417026	      0.02389358	    -23.94103145	    -15.13916982	     -8.54026787	    -15.14303466	     25.12232072	     23.01928992	    -17.00000000	     38.97506579	     29.36504502	      0.00120871	     -0.00000000
      1.22000000	     -1.11077785	    -15.94880586	    -10.41454826	     -0.04039937	      0.02524530	      0.02393083	    -24.07243588	    -14.79963131	     -7.96429376	    -15.15437822	     26.42830454	     22.66884729	    -17.00000000	     39.73188165	     27.80772067	      0.00120871	     -0.00000000
      1.24000000	     -1.16281830	    -16.13787268	    -10.03436169	     -0.04176300	      0.02629763	      0.02396957	    -24.24001917	    -14.33418739	     -7.37432866	    -15.09706178	     27.87309902	     22.23611637	    -17.00000000	     40.43150266	     26.31737606	      0.00120871	     -0.00000000
      1.26000000	     -1.19982945	    -16.31370198	     -9.64225228	     -0.04309337	      0.02731605	      0.02401461	    -24.41774786	    -13.80564033	     -6.75675635	    -15.00054378	     29.38653808	     21.76462875	    -17.00000000	     41.06911499	     24.85905823	      0.00120871	     -0.00000000
      1.28000000	     -1.19912507	    -16.47816679	     -9.23002584	     -0.04440471	      0.02836933	      0.02417801	    -24.64234584	    -13.25333101	     -6.14757204	    -14.89354891	     30.97238923	     21.28603211	    -17.00000000	     41.63279722	     23.48966263	      0.00120871	     -0.00000000
      1.30000000	     -1.18910369	    -16.62349407	     -8.80893471	     -0.04569589	      0.02941545	      0.02434730	    -24.86374027	    -12.68316747	     -5.53104447	    -14.76281053	     32.54564682	     20.80563182	    -17.00000000	     42.20109006	     22.18924943	      0.00120871	     -0.00000000
      1.32000000	     -1.16780410	    -16.76424839	     -8.37378485	     -0.04697056	      0.03047444	      0.02450767	    -25.04995380	    -12.10220938	     -4.88976730	    -14.60496687	     34.06207792	     20.32885412	    -17.00000000	     42.81784290	     20.95553620	      0.00120871	     -0.00000000
      1.34000000	     -1.14779511	    -16.88177218	     -7.95319499	     -0.04818101	      0.03151354	      0.02471453	    -25.26973400	    -11.54053162	     -4.27725370	    -14.45299815	     35.57762941	     19.87757000	    -17.00000000	     43.40371070	     19.77607839	      0.00120871	     -0.00000000
      1.36000000	     -1.13437569	    -17.00059193	     -7.52973360	     -0.04936778	      0.03255145	      0.02491600	    -25.45295983	    -11.00048910	     -3.65255348	    -14.29287306	     37.00696345	     19.45176686	    -17.00000000	     44.03912075	     18.67981558	      0.00120871	     -0.00000000
      1.38000000	     -1.14256122	    -17.12565481	     -7.12191118	     -0.05052037	      0.03357119	      0.02510560	    -25.59310202	    -10.50573757	     -3.01357150	    -14.13957466	     38.33374569	     19.06491158	    -17.00000000	     44.73082676	     17.65399112	      0.00120871	     -0.00000000
      1.40000000	     -1.17798003	    -17.26516072	     -6.71032889	     -0.05160338	      0.03464795	      0.02527853	    -25.67721651	    -10.07011276	     -2.37062606	    -13.99794940	     39.51667542	     18.72601450	    -17.00000000	     45.48795933	     16.75646062	      0.00120871	     -0.00000000
      1.42000000	     -1.47398727	    -17.33802292	     -6.24373760	     -0.05256831	      0.03617461	      0.02541415	    -25.84004469	    -10.10764918	     -2.05468489	    -14.11815973	     40.23503850	     18.70149823	    -17.00000000	     46.33118532	     16.49576016	      0.00120871	     -0.00000000
